<?xml version="1.0" standalone="no"?>
<!DOCTYPE svg PUBLIC "-//W3C//DTD SVG 20010904//EN"
 "http://www.w3.org/TR/2001/REC-SVG-20010904/DTD/svg10.dtd">
<svg version="1.0" xmlns="http://www.w3.org/2000/svg"
 width="225.000000pt" height="225.000000pt" viewBox="0 0 225.000000 225.000000"
 preserveAspectRatio="xMidYMid meet">

<g transform="translate(0.000000,225.000000) scale(0.100000,-0.100000)"
fill="#000000" stroke="none">
<path d="M634 1261 c-16 -10 -61 -56 -99 -102 -37 -46 -74 -91 -82 -100 -12
-14 -8 -15 39 -11 45 3 66 -2 133 -31 49 -22 84 -32 89 -27 6 6 13 53 16 105
7 106 13 117 75 138 36 12 38 15 20 24 -11 6 -52 13 -90 16 -58 6 -75 3 -101
-12z m66 -41 c0 -5 -4 -10 -10 -10 -5 0 -10 5 -10 10 0 6 5 10 10 10 6 0 10
-4 10 -10z"/>
<path d="M835 1165 c-31 -30 -32 -73 -5 -103 26 -28 80 -29 103 -4 33 36 12
58 -24 26 -11 -10 -25 -13 -39 -9 -32 10 -25 69 9 73 15 2 28 -3 33 -12 11
-19 38 -21 38 -3 0 18 -12 32 -37 46 -33 17 -51 14 -78 -14z"/>
<path d="M992 1174 c-19 -13 -22 -24 -22 -75 0 -46 3 -59 15 -59 11 0 15 11
15 39 0 52 8 71 31 71 12 0 19 7 19 20 0 24 -26 26 -58 4z"/>
<path d="M1086 1169 c-35 -27 -37 -90 -4 -113 78 -55 160 43 93 109 -30 30
-54 31 -89 4z m72 -36 c15 -29 -4 -62 -36 -63 -21 0 -37 47 -22 65 17 20 47
19 58 -2z"/>
<path d="M1224 1118 c18 -57 27 -73 41 -73 13 0 22 11 29 33 12 42 23 41 32
-3 11 -58 38 -47 63 27 25 75 26 90 4 86 -9 -2 -21 -20 -28 -43 l-12 -40 -12
30 c-6 17 -14 36 -16 43 -9 26 -32 10 -45 -30 l-13 -43 -14 43 c-10 28 -20 42
-33 42 -17 0 -16 -4 4 -72z"/>
</g>
</svg>
