<?xml version="1.0" standalone="no"?>
<!DOCTYPE svg PUBLIC "-//W3C//DTD SVG 20010904//EN"
 "http://www.w3.org/TR/2001/REC-SVG-20010904/DTD/svg10.dtd">
<svg version="1.0" xmlns="http://www.w3.org/2000/svg"
 width="151.000000pt" height="148.000000pt" viewBox="0 0 151.000000 148.000000"
 preserveAspectRatio="xMidYMid meet">

<g transform="translate(0.000000,148.000000) scale(0.100000,-0.100000)"
fill="#000000" stroke="none">
<path d="M0 740 l0 -740 755 0 755 0 0 740 0 740 -755 0 -755 0 0 -740z m850
250 c17 -11 15 -14 -27 -28 -36 -12 -52 0 -33 23 14 17 38 19 60 5z m-59 -87
c10 -26 11 -27 24 -10 13 18 32 7 20 -13 -6 -10 29 -50 45 -50 6 0 10 -4 10
-10 0 -5 -9 -10 -19 -10 -11 0 -23 5 -26 10 -3 6 -11 10 -17 10 -13 0 -6 -52
13 -97 11 -27 11 -39 1 -65 -10 -28 -10 -35 3 -44 23 -17 18 -24 -19 -24 l-33
0 1 56 c1 71 -17 89 -59 56 -34 -27 -50 -27 -97 -2 -30 16 -37 17 -42 5 -11
-29 -26 -15 -19 18 3 17 7 34 9 36 2 2 26 -5 54 -17 l50 -21 19 27 c16 23 51
111 51 128 0 3 -12 4 -27 2 -29 -3 -39 -30 -21 -54 10 -14 0 -44 -15 -44 -24
0 -97 33 -97 44 0 20 15 33 45 40 17 4 39 16 50 26 11 10 34 20 50 23 17 2 31
5 33 6 1 0 7 -11 13 -26z m-224 -387 c-3 -8 1 -17 9 -20 25 -9 9 -65 -18 -66
-4 0 -13 7 -22 15 -13 13 -18 13 -44 -2 -42 -24 -62 -12 -62 37 0 39 1 40 35
40 24 0 37 -6 45 -20 9 -16 13 -18 24 -8 8 7 14 15 14 18 -1 14 3 20 13 20 6
0 9 -6 6 -14z m688 4 c3 -5 3 -10 -2 -10 -4 0 -9 -11 -9 -25 -1 -14 -5 -33 -9
-43 -6 -13 -9 -10 -16 18 -10 47 16 92 36 60z m-1027 -16 c8 -14 10 -14 21 0
22 27 31 18 31 -29 0 -25 -4 -45 -10 -45 -5 0 -10 12 -10 28 0 19 -3 23 -9 13
-5 -7 -13 -11 -19 -7 -5 3 -12 -4 -15 -15 -9 -33 -27 -12 -27 32 0 41 21 54
38 23z m130 -37 c-5 -37 -27 -46 -52 -21 -20 19 -20 29 0 48 21 22 56 3 52
-27z m59 0 c-2 -24 -7 -32 -21 -32 -11 0 -21 6 -24 13 -2 8 3 10 15 6 17 -5
17 -5 1 6 -21 13 -24 36 -5 43 23 8 35 -5 34 -36z m253 3 c0 -22 -25 -44 -40
-35 -5 3 -10 -1 -10 -9 0 -9 -4 -16 -10 -16 -5 0 -10 20 -10 44 0 38 3 45 23
48 27 5 47 -9 47 -32z m78 -3 c-2 -20 -9 -31 -22 -33 -29 -4 -46 7 -46 30 0
30 16 44 46 38 21 -4 25 -9 22 -35z m230 -2 c-3 -29 -22 -39 -49 -25 -23 13
-24 33 -3 54 22 22 54 4 52 -29z m186 36 c4 -1 5 -8 2 -17 -4 -11 1 -18 14
-21 11 -3 20 -12 20 -21 0 -12 -3 -13 -12 -4 -8 8 -15 9 -25 1 -14 -12 -43 -5
-43 10 0 6 8 7 17 4 14 -5 13 -3 -3 14 -22 23 -44 19 -44 -7 0 -11 -4 -22 -10
-25 -6 -4 -10 8 -10 29 0 41 9 45 94 37z m-339 -33 c0 -35 -19 -37 -23 -3 -4
32 -22 23 -22 -11 0 -14 -4 -22 -10 -19 -5 3 -10 20 -10 36 0 28 2 30 33 27
28 -3 32 -7 32 -30z m75 -4 c0 -21 -4 -33 -10 -29 -5 3 -10 17 -10 31 0 14 -4
22 -10 19 -5 -3 -10 -17 -10 -31 0 -13 -4 -24 -10 -24 -5 0 -10 16 -10 35 0
32 2 35 30 35 28 0 30 -3 30 -36z m110 17 c0 -11 5 -23 10 -26 6 -4 10 5 10
19 0 14 5 26 10 26 6 0 10 -15 10 -33 0 -29 -3 -33 -27 -32 -24 0 -28 5 -31
33 -2 18 1 32 7 32 6 0 11 -9 11 -19z m300 10 c0 -5 -7 -11 -15 -15 -8 -3 -15
-15 -15 -26 0 -12 -4 -18 -10 -15 -5 3 -10 19 -10 36 0 24 4 29 25 29 14 0 25
-4 25 -9z"/>
<path d="M667 859 c7 -7 15 -10 18 -7 3 3 -2 9 -12 12 -14 6 -15 5 -6 -5z"/>
<path d="M460 480 c0 -11 7 -20 15 -20 8 0 15 9 15 20 0 11 -7 20 -15 20 -8 0
-15 -9 -15 -20z"/>
<path d="M622 469 c2 -6 8 -10 13 -10 5 0 11 4 13 10 2 6 -4 11 -13 11 -9 0
-15 -5 -13 -11z"/>
<path d="M702 469 c2 -6 8 -10 13 -10 5 0 11 4 13 10 2 6 -4 11 -13 11 -9 0
-15 -5 -13 -11z"/>
</g>
</svg>
