<?xml version="1.0" standalone="no"?>
<!DOCTYPE svg PUBLIC "-//W3C//DTD SVG 20010904//EN"
 "http://www.w3.org/TR/2001/REC-SVG-20010904/DTD/svg10.dtd">
<svg version="1.0" xmlns="http://www.w3.org/2000/svg"
 width="310.000000pt" height="163.000000pt" viewBox="0 0 310.000000 163.000000"
 preserveAspectRatio="xMidYMid meet">

<g transform="translate(0.000000,163.000000) scale(0.100000,-0.100000)"
fill="#000000" stroke="none">
<path d="M0 815 l0 -815 28 0 c15 0 33 5 40 12 9 9 12 9 12 0 0 -18 1616 -17
1624 1 3 9 5 9 5 0 1 -7 12 -13 25 -13 13 0 27 6 29 13 4 10 6 10 6 0 1 -19
1261 -19 1280 -1 11 10 13 10 7 1 -5 -9 1 -13 18 -13 l26 0 0 815 0 815 -1550
0 -1550 0 0 -815z m881 137 c-13 -9 -38 -30 -56 -48 -26 -24 -30 -35 -22 -44
9 -10 9 -11 -3 -8 -18 6 -15 43 6 76 22 33 76 64 89 51 7 -8 3 -16 -14 -27z
m1092 24 c8 -19 -15 -37 -32 -26 -17 10 -7 40 13 40 7 0 16 -6 19 -14z m-103
-36 c0 -13 7 -20 20 -20 13 0 20 -7 20 -20 0 -13 -7 -20 -20 -20 -17 0 -20 -7
-20 -40 0 -33 3 -40 20 -40 13 0 20 -7 20 -20 0 -15 -7 -20 -28 -20 -40 0 -52
17 -52 72 0 36 -4 48 -15 48 -8 0 -15 9 -15 20 0 11 7 20 15 20 8 0 15 9 15
20 0 13 7 20 20 20 13 0 20 -7 20 -20z m-894 -90 c19 0 34 -4 34 -8 0 -8 -77
-82 -86 -82 -2 0 -4 16 -4 35 0 34 -1 35 -37 35 l-37 0 44 46 45 45 3 -35 c3
-34 5 -36 38 -36z m304 53 c0 -7 -8 -17 -17 -20 -27 -10 -33 -23 -33 -75 0
-41 -3 -48 -20 -48 -18 0 -20 7 -20 79 l0 79 45 0 c31 -1 45 -5 45 -15z m139
-9 c12 -15 21 -37 21 -50 0 -22 -4 -24 -55 -24 -30 0 -55 -4 -55 -9 0 -16 38
-23 59 -12 14 8 22 7 30 -2 16 -20 -7 -37 -48 -37 -64 1 -100 48 -81 105 13
41 33 54 77 55 22 0 38 -8 52 -26z m201 -54 l0 -78 -57 -1 c-46 0 -62 4 -80
21 -29 27 -30 76 -3 111 18 23 27 26 80 25 l60 -1 0 -77z m155 67 c15 -12 16
-15 4 -23 -8 -5 -30 -9 -49 -9 -33 0 -35 -2 -35 -35 0 -33 2 -35 35 -35 19 0
41 -4 49 -9 12 -8 11 -11 -4 -23 -49 -35 -125 3 -125 63 0 65 74 107 125 71z
m195 -67 c0 -73 -2 -80 -20 -80 -18 0 -20 7 -20 80 0 73 2 80 20 80 18 0 20
-7 20 -80z m85 21 l22 -53 23 56 c16 40 28 56 41 56 24 0 25 2 -12 -86 -25
-60 -35 -74 -53 -74 -16 0 -26 10 -38 43 -9 23 -23 59 -32 80 -17 38 -17 38 5
35 17 -2 28 -17 44 -57z m245 39 c11 -11 20 -33 20 -50 0 -30 0 -30 -57 -30
-53 -1 -56 -2 -39 -15 11 -8 29 -12 42 -9 13 3 28 3 34 -1 21 -13 -11 -35 -50
-35 -47 0 -80 36 -80 86 0 62 86 98 130 54z m-1235 -130 c-10 -23 -31 -45 -55
-59 -42 -23 -74 -28 -67 -8 2 6 10 11 16 9 10 -2 36 22 97 89 8 9 15 22 15 30
1 8 3 6 6 -5 3 -10 -3 -35 -12 -56z m406 -227 c13 -16 12 -17 -3 -4 -17 13
-22 21 -14 21 2 0 10 -8 17 -17z m34 7 c3 -5 1 -10 -4 -10 -6 0 -11 5 -11 10
0 6 2 10 4 10 3 0 8 -4 11 -10z m652 -5 c0 -8 -4 -12 -9 -9 -5 3 -6 10 -3 15
9 13 12 11 12 -6z m-647 -61 c0 -8 -19 -13 -24 -6 -3 5 1 9 9 9 8 0 15 -2 15
-3z m-135 -14 c3 -5 1 -10 -4 -10 -6 0 -11 5 -11 10 0 6 2 10 4 10 3 0 8 -4
11 -10z m-55 -65 c0 -8 -4 -15 -10 -15 -5 0 -10 7 -10 15 0 8 5 15 10 15 6 0
10 -7 10 -15z m280 -15 c0 -5 -2 -10 -4 -10 -3 0 -8 5 -11 10 -3 6 -1 10 4 10
6 0 11 -4 11 -10z m-150 -35 c0 -2 -7 -8 -15 -15 -12 -10 -15 -10 -15 2 0 8 7
15 15 15 8 0 15 -1 15 -2z m180 -9 c0 -11 -19 -15 -25 -6 -3 5 1 10 9 10 9 0
16 -2 16 -4z m-225 -66 c3 -5 1 -10 -4 -10 -6 0 -11 5 -11 10 0 6 2 10 4 10 3
0 8 -4 11 -10z m102 -75 c0 -6 -6 -12 -12 -12 -6 0 -12 6 -12 12 0 6 6 12 12
12 6 0 12 -6 12 -12z m-3 -57 c-3 -4 -9 -8 -15 -8 -5 0 -9 4 -9 8 0 5 7 9 15
9 8 0 12 -4 9 -9z m36 2 c0 -5 -5 -10 -11 -10 -5 0 -7 5 -4 10 3 6 8 10 11 10
2 0 4 -4 4 -10z m220 -75 c0 -14 -36 -13 -50 1 -7 7 0 10 20 10 16 0 30 -5 30
-11z"/>
<path d="M1334 873 c-17 -17 -16 -18 20 -21 46 -4 58 5 32 24 -25 18 -31 18
-52 -3z"/>
<path d="M1504 866 c-3 -8 -4 -25 -2 -38 4 -32 63 -39 73 -9 11 36 -3 61 -36
61 -16 0 -32 -6 -35 -14z"/>
<path d="M2222 878 c-20 -20 -14 -28 23 -28 37 0 49 22 19 34 -22 8 -28 8 -42
-6z"/>
</g>
</svg>
